# Blender v2.80 (sub 75) OBJ File: ''
# www.blender.org
o teapot
v 7.000000 12.000000 0.000000
v 4.970000 12.000000 4.970000
v 4.981100 12.492200 4.981100
v 7.015600 12.492200 0.000000
v 5.325000 12.000000 5.325000
v 7.500000 12.000000 0.000000
v 0.000000 12.000000 7.000000
v 0.000000 12.492200 7.015600
v 0.000000 12.000000 7.500000
v -5.138700 12.000000 4.970000
v -5.002200 12.492200 4.981100
v -5.325000 12.000000 5.325000
v -7.000000 12.000000 0.000000
v -7.015600 12.492200 0.000000
v -7.500000 12.000000 0.000000
v -4.970000 12.000000 -4.970000
v -4.981100 12.492200 -4.981100
v -5.325000 12.000000 -5.325000
v 0.000000 12.000000 -7.000000
v 0.000000 12.492200 -7.015600
v 0.000000 12.000000 -7.500000
v 4.970000 12.000000 -4.970000
v 4.981100 12.492200 -4.981100
v 5.325000 12.000000 -5.325000
v 6.545300 8.109400 6.545300
v 9.218800 8.109400 0.000000
v 7.100000 4.500000 7.100000
v 10.000000 4.500000 0.000000
v 0.000000 8.109400 9.218800
v 0.000000 4.500000 10.000000
v -6.545300 8.109400 6.545300
v -7.100000 4.500000 7.100000
v -9.218800 8.109400 0.000000
v -10.000000 4.500000 0.000000
v -6.545300 8.109400 -6.545300
v -7.100000 4.500000 -7.100000
v 0.000000 8.109400 -9.218800
v 0.000000 4.500000 -10.000000
v 6.545300 8.109400 -6.545300
v 7.100000 4.500000 -7.100000
v 6.212500 1.921900 6.212500
v 8.750000 1.921900 0.000000
v 5.325000 0.750000 5.325000
v 7.500000 0.750000 0.000000
v 0.000000 1.921900 8.750000
v 0.000000 0.750000 7.500000
v -6.212500 1.921900 6.212500
v -5.325000 0.750000 5.325000
v -8.750000 1.921900 0.000000
v -7.500000 0.750000 0.000000
v -6.212500 1.921900 -6.212500
v -5.325000 0.750000 -5.325000
v 0.000000 1.921900 -8.750000
v 0.000000 0.750000 -7.500000
v 6.212500 1.921900 -6.212500
v 5.325000 0.750000 -5.325000
v 4.559500 0.234400 4.559500
v 6.421900 0.234400 0.000000
v 0.000000 0.000000 0.000000
v 0.000000 0.234400 6.421900
v -4.559500 0.234400 4.559500
v -6.421900 0.234400 0.000000
v -4.559500 0.234400 -4.559500
v 0.000000 0.234400 -6.421900
v 4.559500 0.234400 -4.559500
v -8.000000 10.125000 0.000000
v -7.750000 10.687500 1.125000
v -12.593800 10.476600 1.125000
v -12.062500 9.984400 0.000000
v -14.250000 9.000000 1.125000
v -13.500000 9.000000 0.000000
v -7.500000 11.250000 0.000000
v -13.125000 10.968800 0.000000
v -15.000000 9.000000 0.000000
v -7.750000 10.687500 -1.125000
v -12.593800 10.476600 -1.125000
v -14.250000 9.000000 -1.125000
v -13.171900 6.269500 1.125000
v -12.687500 6.750000 0.000000
v -9.750000 3.750000 1.125000
v -13.656300 5.789100 0.000000
v -9.500000 3.000000 0.000000
v -13.171900 6.269500 -1.125000
v -9.750000 3.750000 -1.125000
v 8.500000 7.125000 0.000000
v 8.500000 5.062500 2.475000
v 12.687500 8.109400 1.706200
v 11.937500 9.000000 0.000000
v 15.000000 12.000000 0.937500
v 13.500000 12.000000 0.000000
v 8.500000 3.000000 0.000000
v 13.437500 7.218700 0.000000
v 16.500000 12.000000 0.000000
v 8.500000 5.062500 -2.475000
v 12.687500 8.109400 -1.706200
v 15.000000 12.000000 -0.937500
v 15.632800 12.334000 0.750000
v 14.125000 12.281300 0.000000
v 15.000000 12.000000 0.562500
v 14.000000 12.000000 0.000000
v 17.140600 12.386700 0.000000
v 16.000000 12.000000 0.000000
v 15.632800 12.334000 -0.750000
v 15.000000 12.000000 -0.562500
v 1.155200 14.906300 1.155200
v 1.625000 14.906300 0.000000
v 0.000000 15.750000 0.000000
v 0.710000 13.500000 0.710000
v 1.000000 13.500000 0.000000
v 0.000000 14.906300 1.625000
v 0.000000 13.500000 1.000000
v -1.155200 14.906300 1.155200
v -0.710000 13.500000 0.710000
v -1.625000 14.906300 0.000000
v -1.000000 13.500000 0.000000
v -1.155200 14.906300 -1.155200
v -0.710000 13.500000 -0.710000
v 0.000000 14.906300 -1.625000
v 0.000000 13.500000 -1.000000
v 1.155200 14.906300 -1.155200
v 0.710000 13.500000 -0.710000
v 2.928800 12.750000 2.928800
v 4.125000 12.750000 0.000000
v 4.615000 12.000000 4.615000
v 6.500000 12.000000 0.000000
v 0.000000 12.750000 4.125000
v 0.000000 12.000000 6.500000
v -2.928800 12.750000 2.928800
v -4.615000 12.000000 4.615000
v -4.125000 12.750000 0.000000
v -6.500000 12.000000 0.000000
v -2.928800 12.750000 -2.928800
v -4.615000 12.000000 -4.615000
v 0.000000 12.750000 -4.125000
v 0.000000 12.000000 -6.500000
v 2.928800 12.750000 -2.928800
v 4.615000 12.000000 -4.615000
vt 1.500000 2.000000
vt 2.000000 1.950000
vt 2.000000 2.000000
vt 1.500000 1.950000
vt 2.000000 1.900000
vt 1.000000 1.950000
vt 1.000000 1.900000
vt 1.500000 1.900000
vt 1.000000 2.000000
vt 0.500000 1.950000
vt 0.500000 1.900000
vt 0.500000 2.000000
vt 0.000000 1.950000
vt 0.000000 1.900000
vt 1.500000 2.000000
vt 2.000000 1.950000
vt 2.000000 2.000000
vt 1.500000 1.950000
vt 2.000000 1.900000
vt 1.000000 1.950000
vt 1.000000 1.900000
vt 1.500000 1.900000
vt 0.500000 2.000000
vt 1.000000 2.000000
vt 0.500000 1.950000
vt 0.000000 1.950000
vt 0.000000 1.900000
vt 0.500000 1.900000
vt 2.000000 1.450000
vt 1.500000 1.450000
vt 2.000000 1.000000
vt 1.000000 1.450000
vt 1.000000 1.000000
vt 1.500000 1.000000
vt 0.500000 1.450000
vt 0.000000 1.450000
vt 0.000000 1.000000
vt 0.500000 1.000000
vt 2.000000 1.450000
vt 1.500000 1.450000
vt 2.000000 1.000000
vt 1.000000 1.450000
vt 1.000000 1.000000
vt 1.500000 1.000000
vt 0.500000 1.450000
vt 0.000000 1.450000
vt 0.000000 1.000000
vt 0.500000 1.000000
vt 1.500000 0.700000
vt 2.000000 0.700000
vt 1.500000 0.400000
vt 2.000000 0.400000
vt 1.000000 0.700000
vt 0.500000 0.700000
vt 0.500000 0.400000
vt 1.000000 0.400000
vt 0.000000 0.700000
vt 1.500000 0.700000
vt 2.000000 0.700000
vt 1.500000 0.400000
vt 2.000000 0.400000
vt 1.000000 0.700000
vt 0.500000 0.700000
vt 0.500000 0.400000
vt 1.000000 0.400000
vt 0.000000 0.700000
vt 1.500000 0.200000
vt 2.000000 0.200000
vt 1.500000 0.000000
vt 1.000000 0.200000
vt 1.000000 0.000000
vt 0.500000 0.200000
vt 0.500000 0.000000
vt 0.000000 0.400000
vt 0.000000 0.200000
vt 0.000000 0.000000
vt 1.500000 0.200000
vt 2.000000 0.200000
vt 1.000000 0.200000
vt 0.500000 0.200000
vt 0.000000 0.400000
vt 0.000000 0.200000
vt 0.750000 1.000000
vt 1.000000 0.750000
vt 1.000000 1.000000
vt 0.750000 0.750000
vt 1.000000 0.500000
vt 0.500000 1.000000
vt 0.500000 0.750000
vt 0.750000 0.500000
vt 0.250000 0.750000
vt 0.250000 0.500000
vt 0.500000 0.500000
vt 0.250000 1.000000
vt 0.000000 0.750000
vt 0.000000 0.500000
vt 1.000000 0.250000
vt 0.750000 0.250000
vt 1.000000 0.000000
vt 0.500000 0.250000
vt 0.750000 0.000000
vt 0.250000 0.000000
vt 0.500000 0.000000
vt 0.000000 0.250000
vt 0.250000 0.250000
vt 0.000000 0.000000
vt 0.500000 0.000000
vt 0.750000 0.450000
vt 0.500000 0.450000
vt 0.500000 0.900000
vt 0.750000 0.000000
vt 1.000000 0.450000
vt 0.750000 0.900000
vt 0.250000 0.000000
vt 0.000000 0.450000
vt 0.000000 0.000000
vt 0.250000 0.900000
vt 0.000000 0.900000
vt 0.250000 0.450000
vt 0.500000 0.950000
vt 0.750000 1.000000
vt 0.500000 1.000000
vt 1.000000 0.900000
vt 0.750000 0.950000
vt 1.000000 1.000000
vt 0.250000 0.950000
vt 0.000000 0.950000
vt 0.000000 1.000000
vt 0.250000 1.000000
vt 0.750000 0.500000
vt 1.000000 0.500000
vt 1.000000 1.000000
vt 0.750000 0.000000
vt 1.000000 0.000000
vt 0.500000 0.500000
vt 0.750000 1.000000
vt 0.250000 0.500000
vt 0.500000 1.000000
vt 0.250000 0.000000
vt 0.500000 0.000000
vt 0.000000 0.500000
vt 0.250000 1.000000
vt 0.750000 0.500000
vt 1.000000 0.500000
vt 0.750000 0.000000
vt 1.000000 0.000000
vt 0.500000 0.500000
vt 0.250000 0.500000
vt 0.250000 0.000000
vt 0.500000 0.000000
vt 0.000000 0.500000
vt 0.750000 1.000000
vt 1.000000 0.500000
vt 1.000000 1.000000
vt 0.750000 0.500000
vt 1.000000 0.000000
vt 0.500000 0.500000
vt 0.500000 0.000000
vt 0.750000 0.000000
vt 0.250000 1.000000
vt 0.500000 1.000000
vt 0.250000 0.500000
vt 0.000000 0.500000
vt 0.000000 0.000000
vt 0.250000 0.000000
vt 0.750000 1.000000
vt 1.000000 0.500000
vt 1.000000 1.000000
vt 0.750000 0.500000
vt 1.000000 0.000000
vt 0.500000 0.500000
vt 0.500000 0.000000
vt 0.750000 0.000000
vt 0.250000 1.000000
vt 0.500000 1.000000
vt 0.250000 0.500000
vt 0.000000 0.500000
vt 0.000000 0.000000
vt 0.250000 0.000000
vt 0.000000 2.000000
vt 0.000000 2.000000
vt 0.000000 1.000000
vt 1.000000 0.000000
vt 1.000000 0.950000
vt 0.000000 0.000000
vt 0.000000 0.000000
vt 0.000000 1.000000
vt 0.000000 1.000000
vn -0.7067 0.0319 -0.7067
vn -0.1417 0.9899 0.0000
vn -0.9995 0.0317 0.0000
vn -0.0966 0.9906 -0.0966
vn 0.8400 0.5425 0.0000
vn 0.0023 0.9904 -0.1379
vn 0.0001 0.5434 0.8395
vn 0.5936 0.5435 0.5936
vn 0.0012 0.0541 -0.9985
vn 0.0678 0.9688 -0.2385
vn -0.5962 0.5352 0.5984
vn 0.7018 -0.2743 -0.6574
vn 0.1482 0.9889 0.0144
vn -0.8391 0.5439 -0.0012
vn 0.7067 0.0319 0.7067
vn 0.9943 0.1051 0.0201
vn 0.0966 0.9906 0.0966
vn 0.0000 0.9899 0.1417
vn 0.0000 0.5425 -0.8400
vn -0.5936 0.5435 -0.5936
vn -0.7067 0.0319 0.7067
vn 0.0000 0.0317 0.9995
vn -0.0966 0.9906 0.0966
vn 0.5936 0.5435 -0.5936
vn 0.9532 0.3025 0.0000
vn 0.6738 0.3034 0.6738
vn 0.9939 -0.1105 0.0000
vn 0.0000 0.3025 0.9532
vn 0.0000 -0.1105 0.9939
vn 0.7028 -0.1107 0.7028
vn -0.6738 0.3034 0.6738
vn -0.9532 0.3025 0.0000
vn -0.9939 -0.1105 0.0000
vn -0.7028 -0.1107 0.7028
vn -0.6738 0.3034 -0.6738
vn 0.0000 0.3025 -0.9532
vn -0.0000 -0.1105 -0.9939
vn -0.7028 -0.1107 -0.7028
vn 0.6738 0.3034 -0.6738
vn 0.7028 -0.1107 -0.7028
vn 0.5792 -0.5735 0.5792
vn 0.8198 -0.5726 0.0000
vn 0.4157 -0.8089 0.4157
vn 0.5888 -0.8083 0.0000
vn 0.0000 -0.5726 0.8198
vn -0.5792 -0.5735 0.5792
vn -0.4157 -0.8089 0.4157
vn -0.0000 -0.8083 0.5888
vn -0.8198 -0.5726 0.0000
vn -0.5792 -0.5735 -0.5792
vn -0.4157 -0.8089 -0.4157
vn -0.5888 -0.8083 0.0000
vn 0.0000 -0.5726 -0.8198
vn 0.5792 -0.5735 -0.5792
vn 0.4157 -0.8089 -0.4157
vn 0.0000 -0.8083 -0.5888
vn 0.2016 -0.9585 0.2016
vn 0.2850 -0.9585 0.0000
vn 0.0000 -1.0000 -0.0000
vn 0.0000 -0.9585 0.2850
vn -0.2016 -0.9585 0.2016
vn -0.2850 -0.9585 0.0000
vn -0.2016 -0.9585 -0.2016
vn -0.0000 -0.9585 -0.2850
vn 0.2016 -0.9585 -0.2016
vn -0.0163 0.2642 0.9643
vn 0.2491 -0.9684 -0.0139
vn 0.0335 -0.9994 -0.0031
vn 0.0100 0.1692 0.9855
vn 0.9298 -0.3658 -0.0411
vn -0.0450 0.9990 0.0014
vn -0.4425 0.8967 0.0044
vn -0.3032 0.1168 0.9457
vn 0.0063 0.1729 -0.9849
vn -0.2695 0.1026 -0.9575
vn -0.9863 0.1651 -0.0032
vn -0.0157 0.2602 -0.9654
vn 0.8289 0.5593 -0.0134
vn -0.1115 -0.0737 0.9910
vn 0.6069 0.7942 -0.0290
vn -0.7841 -0.6206 0.0079
vn -0.3534 -0.5429 0.7618
vn -0.3230 -0.5244 -0.7878
vn -0.5545 -0.8321 0.0076
vn -0.1021 -0.0951 -0.9902
vn -0.4885 0.8726 -0.0072
vn 0.2052 0.0282 0.9783
vn -0.7440 0.6678 0.0236
vn -0.6974 0.7144 0.0564
vn 0.3245 -0.2475 0.9129
vn 0.7848 -0.6196 -0.0174
vn -0.0408 0.2940 0.9549
vn 0.3423 -0.2439 -0.9074
vn 0.6475 -0.7621 -0.0025
vn 0.0592 0.3207 -0.9453
vn 0.6035 -0.7910 -0.1005
vn 0.1831 -0.0165 -0.9830
vn 0.0307 0.9973 0.0671
vn 0.3038 -0.0791 -0.9495
vn 0.9551 -0.2960 0.0142
vn 0.2492 0.7396 0.6252
vn -0.3214 0.9469 -0.0029
vn 0.4059 0.7443 -0.5303
vn 0.8746 0.4661 -0.1337
vn 0.3288 -0.1526 0.9320
vn 0.6774 0.2870 0.6774
vn 0.9576 0.2882 -0.0000
vn 0.0000 1.0000 0.0000
vn 0.5956 0.5395 0.5951
vn 0.8433 0.5374 0.0003
vn 0.0000 0.2882 0.9576
vn -0.6774 0.2870 0.6774
vn -0.5951 0.5395 0.5956
vn -0.0004 0.5369 0.8436
vn -0.9576 0.2882 0.0000
vn -0.6774 0.2870 -0.6774
vn -0.5956 0.5395 -0.5951
vn -0.8435 0.5372 0.0000
vn 0.0000 0.2882 -0.9576
vn 0.6774 0.2870 -0.6774
vn 0.5951 0.5395 -0.5956
vn 0.0004 0.5369 -0.8436
vn 0.2754 0.9613 0.0000
vn 0.1942 0.9616 0.1942
vn 0.3011 0.9536 0.0000
vn 0.0000 0.9613 0.2754
vn -0.0000 0.9536 0.3011
vn 0.2121 0.9539 0.2121
vn -0.1942 0.9616 0.1942
vn -0.2754 0.9613 0.0000
vn -0.3011 0.9536 0.0000
vn -0.2121 0.9539 0.2121
vn -0.1942 0.9616 -0.1942
vn 0.0000 0.9613 -0.2754
vn 0.0000 0.9536 -0.3011
vn -0.2121 0.9539 -0.2121
vn 0.1942 0.9616 -0.1942
vn 0.2121 0.9539 -0.2121
s 1
f 2/1/1 4/2/2 1/3/3
f 3/4/4 6/5/5 4/2/2
f 2/1/1 8/6/6 3/4/4
f 3/4/4 9/7/7 5/8/8
f 7/9/9 11/10/10 8/6/6
f 8/6/6 12/11/11 9/7/7
f 10/12/12 14/13/13 11/10/10
f 11/10/10 15/14/14 12/11/11
f 16/15/15 14/16/13 13/17/16
f 17/18/17 15/19/14 14/16/13
f 16/15/15 20/20/18 17/18/17
f 17/18/17 21/21/19 18/22/20
f 22/23/21 20/20/18 19/24/22
f 23/25/23 21/21/19 20/20/18
f 22/23/21 4/26/2 23/25/23
f 23/25/23 6/27/5 24/28/24
f 5/8/8 26/29/25 6/5/5
f 25/30/26 28/31/27 26/29/25
f 5/8/8 29/32/28 25/30/26
f 25/30/26 30/33/29 27/34/30
f 12/11/11 29/32/28 9/7/7
f 31/35/31 30/33/29 29/32/28
f 12/11/11 33/36/32 31/35/31
f 31/35/31 34/37/33 32/38/34
f 18/22/20 33/39/32 15/19/14
f 35/40/35 34/41/33 33/39/32
f 18/22/20 37/42/36 35/40/35
f 35/40/35 38/43/37 36/44/38
f 24/28/24 37/42/36 21/21/19
f 39/45/39 38/43/37 37/42/36
f 24/28/24 26/46/25 39/45/39
f 39/45/39 28/47/27 40/48/40
f 28/31/27 41/49/41 42/50/42
f 42/50/42 43/51/43 44/52/44
f 30/33/29 41/49/41 27/34/30
f 45/53/45 43/51/43 41/49/41
f 30/33/29 47/54/46 45/53/45
f 45/53/45 48/55/47 46/56/48
f 34/37/33 47/54/46 32/38/34
f 49/57/49 48/55/47 47/54/46
f 34/41/33 51/58/50 49/59/49
f 49/59/49 52/60/51 50/61/52
f 38/43/37 51/58/50 36/44/38
f 53/62/53 52/60/51 51/58/50
f 38/43/37 55/63/54 53/62/53
f 53/62/53 56/64/55 54/65/56
f 28/47/27 55/63/54 40/48/40
f 42/66/42 56/64/55 55/63/54
f 44/52/44 57/67/57 58/68/58
f 58/68/58 57/67/57 59/69/59
f 46/56/48 57/67/57 43/51/43
f 57/67/57 60/70/60 59/71/59
f 46/56/48 61/72/61 60/70/60
f 60/70/60 61/72/61 59/73/59
f 50/74/52 61/72/61 48/55/47
f 61/72/61 62/75/62 59/76/59
f 50/61/52 63/77/63 62/78/62
f 62/78/62 63/77/63 59/69/59
f 54/65/56 63/77/63 52/60/51
f 63/77/63 64/79/64 59/71/59
f 54/65/56 65/80/65 64/79/64
f 64/79/64 65/80/65 59/73/59
f 44/81/44 65/80/65 56/64/55
f 65/80/65 58/82/58 59/76/59
f 67/83/66 69/84/67 66/85/68
f 68/86/69 71/87/70 69/84/67
f 72/88/71 68/86/69 67/83/66
f 73/89/72 70/90/73 68/86/69
f 72/88/71 76/91/74 73/89/72
f 73/89/72 77/92/75 74/93/76
f 75/94/77 69/95/67 76/91/74
f 76/91/74 71/96/70 77/92/75
f 70/90/73 79/97/78 71/87/70
f 78/98/79 34/99/80 79/97/78
f 70/90/73 81/100/81 78/98/79
f 81/100/81 80/101/82 78/98/79
f 77/92/75 81/100/81 74/93/76
f 81/100/81 84/102/83 82/103/84
f 77/92/75 79/104/78 83/105/85
f 83/105/85 34/106/80 84/102/83
f 85/107/86 87/108/87 88/109/88
f 87/108/87 90/110/89 88/109/88
f 86/111/90 92/112/91 87/108/87
f 92/112/91 89/113/92 87/108/87
f 94/114/93 92/115/91 91/116/94
f 92/115/91 96/117/95 93/118/96
f 85/107/86 95/119/97 94/114/93
f 95/119/97 90/110/89 96/117/95
f 89/113/92 98/120/98 90/110/89
f 98/120/98 99/121/99 100/122/100
f 93/123/96 97/124/101 89/113/92
f 97/124/101 102/125/102 99/121/99
f 93/118/96 103/126/103 101/127/104
f 103/126/103 102/128/102 101/127/104
f 96/117/95 98/120/98 103/126/103
f 98/120/98 104/129/105 103/126/103
f 105/130/106 106/131/107 107/132/108
f 106/131/107 108/133/109 109/134/110
f 110/135/111 105/130/106 107/136/108
f 110/135/111 108/133/109 105/130/106
f 112/137/112 110/135/111 107/138/108
f 110/135/111 113/139/113 111/140/114
f 114/141/115 112/137/112 107/142/108
f 114/141/115 113/139/113 112/137/112
f 116/143/116 114/144/115 107/132/108
f 114/144/115 117/145/117 115/146/118
f 118/147/119 116/143/116 107/136/108
f 118/147/119 117/145/117 116/143/116
f 120/148/120 118/147/119 107/138/108
f 118/147/119 121/149/121 119/150/122
f 106/151/107 120/148/120 107/142/108
f 106/151/107 121/149/121 120/148/120
f 108/152/109 123/153/123 109/154/110
f 122/155/124 125/156/125 123/153/123
f 108/152/109 126/157/126 122/155/124
f 122/155/124 127/158/127 124/159/128
f 113/160/113 126/157/126 111/161/114
f 128/162/129 127/158/127 126/157/126
f 113/160/113 130/163/130 128/162/129
f 128/162/129 131/164/131 129/165/132
f 117/166/117 130/167/130 115/168/118
f 132/169/133 131/170/131 130/167/130
f 117/166/117 134/171/134 132/169/133
f 132/169/133 135/172/135 133/173/136
f 121/174/121 134/171/134 119/175/122
f 136/176/137 135/172/135 134/171/134
f 121/174/121 123/177/123 136/176/137
f 136/176/137 125/178/125 137/179/138
f 2/1/1 3/4/4 4/2/2
f 3/4/4 5/8/8 6/5/5
f 2/1/1 7/9/9 8/6/6
f 3/4/4 8/6/6 9/7/7
f 7/9/9 10/12/12 11/10/10
f 8/6/6 11/10/10 12/11/11
f 10/12/12 13/180/16 14/13/13
f 11/10/10 14/13/13 15/14/14
f 16/15/15 17/18/17 14/16/13
f 17/18/17 18/22/20 15/19/14
f 16/15/15 19/24/22 20/20/18
f 17/18/17 20/20/18 21/21/19
f 22/23/21 23/25/23 20/20/18
f 23/25/23 24/28/24 21/21/19
f 22/23/21 1/181/3 4/26/2
f 23/25/23 4/26/2 6/27/5
f 5/8/8 25/30/26 26/29/25
f 25/30/26 27/34/30 28/31/27
f 5/8/8 9/7/7 29/32/28
f 25/30/26 29/32/28 30/33/29
f 12/11/11 31/35/31 29/32/28
f 31/35/31 32/38/34 30/33/29
f 12/11/11 15/14/14 33/36/32
f 31/35/31 33/36/32 34/37/33
f 18/22/20 35/40/35 33/39/32
f 35/40/35 36/44/38 34/41/33
f 18/22/20 21/21/19 37/42/36
f 35/40/35 37/42/36 38/43/37
f 24/28/24 39/45/39 37/42/36
f 39/45/39 40/48/40 38/43/37
f 24/28/24 6/27/5 26/46/25
f 39/45/39 26/46/25 28/47/27
f 28/31/27 27/34/30 41/49/41
f 42/50/42 41/49/41 43/51/43
f 30/33/29 45/53/45 41/49/41
f 45/53/45 46/56/48 43/51/43
f 30/33/29 32/38/34 47/54/46
f 45/53/45 47/54/46 48/55/47
f 34/37/33 49/57/49 47/54/46
f 49/57/49 50/74/52 48/55/47
f 34/41/33 36/44/38 51/58/50
f 49/59/49 51/58/50 52/60/51
f 38/43/37 53/62/53 51/58/50
f 53/62/53 54/65/56 52/60/51
f 38/43/37 40/48/40 55/63/54
f 53/62/53 55/63/54 56/64/55
f 28/47/27 42/66/42 55/63/54
f 42/66/42 44/81/44 56/64/55
f 44/52/44 43/51/43 57/67/57
f 46/56/48 60/70/60 57/67/57
f 46/56/48 48/55/47 61/72/61
f 50/74/52 62/75/62 61/72/61
f 50/61/52 52/60/51 63/77/63
f 54/65/56 64/79/64 63/77/63
f 54/65/56 56/64/55 65/80/65
f 44/81/44 58/82/58 65/80/65
f 67/83/66 68/86/69 69/84/67
f 68/86/69 70/90/73 71/87/70
f 72/88/71 73/89/72 68/86/69
f 73/89/72 74/93/76 70/90/73
f 72/88/71 75/94/77 76/91/74
f 73/89/72 76/91/74 77/92/75
f 75/94/77 66/182/68 69/95/67
f 76/91/74 69/95/67 71/96/70
f 70/90/73 78/98/79 79/97/78
f 78/98/79 80/101/82 34/99/80
f 70/90/73 74/93/76 81/100/81
f 81/100/81 82/103/84 80/101/82
f 77/92/75 83/105/85 81/100/81
f 81/100/81 83/105/85 84/102/83
f 77/92/75 71/96/70 79/104/78
f 83/105/85 79/104/78 34/106/80
f 85/107/86 86/111/90 87/108/87
f 87/108/87 89/113/92 90/110/89
f 86/111/90 91/183/94 92/112/91
f 92/112/91 93/123/96 89/113/92
f 94/114/93 95/119/97 92/115/91
f 92/115/91 95/119/97 96/117/95
f 85/107/86 88/109/88 95/119/97
f 95/119/97 88/109/88 90/110/89
f 89/113/92 97/124/101 98/120/98
f 98/120/98 97/124/101 99/121/99
f 93/123/96 101/184/104 97/124/101
f 97/124/101 101/184/104 102/125/102
f 93/118/96 96/117/95 103/126/103
f 103/126/103 104/129/105 102/128/102
f 96/117/95 90/110/89 98/120/98
f 98/120/98 100/122/100 104/129/105
f 106/131/107 105/130/106 108/133/109
f 110/135/111 111/140/114 108/133/109
f 110/135/111 112/137/112 113/139/113
f 114/141/115 115/185/118 113/139/113
f 114/144/115 116/143/116 117/145/117
f 118/147/119 119/150/122 117/145/117
f 118/147/119 120/148/120 121/149/121
f 106/151/107 109/186/110 121/149/121
f 108/152/109 122/155/124 123/153/123
f 122/155/124 124/159/128 125/156/125
f 108/152/109 111/161/114 126/157/126
f 122/155/124 126/157/126 127/158/127
f 113/160/113 128/162/129 126/157/126
f 128/162/129 129/165/132 127/158/127
f 113/160/113 115/187/118 130/163/130
f 128/162/129 130/163/130 131/164/131
f 117/166/117 132/169/133 130/167/130
f 132/169/133 133/173/136 131/170/131
f 117/166/117 119/175/122 134/171/134
f 132/169/133 134/171/134 135/172/135
f 121/174/121 136/176/137 134/171/134
f 136/176/137 137/179/138 135/172/135
f 121/174/121 109/188/110 123/177/123
f 136/176/137 123/177/123 125/178/125
